<svg width="24" height="24" viewBox="0 0 24 24" fill="none" xmlns="http://www.w3.org/2000/svg">
<path d="M19.7781 12.7065L17.6567 14.8278L16.2425 13.4136L18.3638 11.2923C19.9259 9.7302 19.9259 7.19754 18.3638 5.63544C16.8018 4.07334 14.2691 4.07334 12.707 5.63544L10.5857 7.75676L9.17146 6.34255L11.2928 4.22123C13.6359 1.87808 17.4349 1.87808 19.7781 4.22123C22.1212 6.56437 22.1212 10.3634 19.7781 12.7065Z" fill="#161C27"/>
<path d="M16.2425 9.17097L14.1212 11.2923L12.707 9.87808L14.8283 7.75676L16.2425 9.17097Z" fill="#161C27"/>
<path d="M9.87872 12.7064L7.75725 14.8278L9.17146 16.242L11.2929 14.1206L19.0711 21.8988L20.4854 20.4846L3.5148 3.51401L2.10059 4.92822L9.87872 12.7064Z" fill="#161C27"/>
<path d="M4.22171 11.2923L6.34304 9.17097L7.75725 10.5852L5.63593 12.7065C4.07383 14.2686 4.07383 16.8013 5.63593 18.3634C7.19803 19.9255 9.73069 19.9255 11.2928 18.3634L13.4141 16.242L14.8283 17.6563L12.707 19.7776C10.3638 22.1207 6.56486 22.1207 4.22171 19.7776C1.87857 17.4344 1.87857 13.6354 4.22171 11.2923Z" fill="#161C27"/>
</svg>
