<svg width="24" height="24" viewBox="0 0 24 24" fill="none" xmlns="http://www.w3.org/2000/svg">
<path fill-rule="evenodd" clip-rule="evenodd" d="M2.80752 2.80761L21.1923 21.1924L19.7781 22.6066L15.6713 18.5H3.19509C2.6428 18.5 2.19509 18.0523 2.19509 17.5C2.19509 17.3308 2.23801 17.1644 2.31984 17.0163L2.77249 16.1968C3.83427 14.2746 4.42298 12.1294 4.49287 9.9387L4.49991 9.5C4.49991 8.83547 4.58634 8.19113 4.74856 7.5776L1.39331 4.22183L2.80752 2.80761ZM14.4999 20C14.4999 21.3807 13.3806 22.5 11.9999 22.5C10.6192 22.5 9.49991 21.3807 9.49991 20H14.4999ZM11.9999 1C12.7044 1 13.2954 1.48561 13.4565 2.14033C16.8236 2.80301 19.3836 5.72127 19.4961 9.25727L19.4999 9.5C19.4994 11.8423 20.0935 14.1464 21.2267 16.1963L21.68 17.0163C21.9471 17.4997 21.7718 18.1081 21.2884 18.3752L21.2301 18.402L18.9521 16.124L18.8477 15.8961C18.0239 14.03 17.5675 12.0227 17.5071 9.99899L17.4971 9.32083C17.4029 6.36027 14.971 4 11.9999 4C10.5654 4 9.25916 4.54919 8.27994 5.45216L6.86251 4.03581C7.86847 3.08964 9.13575 2.41814 10.5445 2.14111C10.7038 1.4861 11.2951 1 11.9999 1ZM13.6713 16.5L6.50331 9.331L6.49185 10.0025C6.42182 12.1976 5.89668 14.3512 4.95308 16.3279L4.86709 16.5H13.6713Z" fill="#161C27"/>
</svg>
