<svg width="24" height="24" viewBox="0 0 24 24" fill="none" xmlns="http://www.w3.org/2000/svg">
<path d="M10 3H7C4.79086 3 3 4.79086 3 7V10H5V7C5 5.89543 5.89543 5 7 5H10V3Z" fill="#161C27"/>
<path d="M14 5V3H17C19.2091 3 21 4.79086 21 7V10H19V7C19 5.89543 18.1046 5 17 5H14Z" fill="#161C27"/>
<path d="M19 14V17C19 17.1252 18.9885 17.2477 18.9665 17.3665C18.7943 18.296 17.9794 19 17 19H14V21H17C19.2091 21 21 19.2091 21 17V14H19Z" fill="#161C27"/>
<path d="M10 21V19H7C6.46667 19 5.98209 18.7912 5.62353 18.451C5.23948 18.0865 5 17.5712 5 17V14H3V17C3 19.2091 4.79086 21 7 21H10Z" fill="#161C27"/>
<path d="M8.5 10C9.32843 10 10 9.32843 10 8.5C10 7.67157 9.32843 7 8.5 7C7.67157 7 7 7.67157 7 8.5C7 9.32843 7.67157 10 8.5 10Z" fill="#161C27"/>
<path d="M6.33112 17.7434L12.8372 11.2373C13.6183 10.4562 14.8846 10.4562 15.6657 11.2373L18 13.5716V16.4L14.2515 12.6515L8.90293 18H7C6.74281 18 6.5083 17.9029 6.33112 17.7434Z" fill="#161C27"/>
</svg>
